<svg width="16" height="18" viewBox="0 0 16 18" fill="none" xmlns="http://www.w3.org/2000/svg">
<path d="M14.7143 17V15.5714C14.7143 13.2046 12.5211 11.2857 9.816 11.2857H5.89829C3.19314 11.2857 1 13.2046 1 15.5714V17M11.2857 4.42857C11.2857 5.33789 10.9245 6.20996 10.2815 6.85294C9.63853 7.49592 8.76646 7.85714 7.85714 7.85714C6.94783 7.85714 6.07576 7.49592 5.43278 6.85294C4.78979 6.20996 4.42857 5.33789 4.42857 4.42857C4.42857 3.51926 4.78979 2.64719 5.43278 2.00421C6.07576 1.36122 6.94783 1 7.85714 1C8.76646 1 9.63853 1.36122 10.2815 2.00421C10.9245 2.64719 11.2857 3.51926 11.2857 4.42857Z" stroke="#323232" stroke-width="2" stroke-linecap="round" stroke-linejoin="round"/>
</svg>
