<svg width="18" height="18" viewBox="0 0 18 18" fill="none" xmlns="http://www.w3.org/2000/svg">
<path d="M8.16666 0.666656C12.3067 0.666656 15.6667 4.02666 15.6667 8.16666C15.6667 12.3067 12.3067 15.6667 8.16666 15.6667C4.02666 15.6667 0.666656 12.3067 0.666656 8.16666C0.666656 4.02666 4.02666 0.666656 8.16666 0.666656ZM8.16666 14C11.3892 14 14 11.3892 14 8.16666C14 4.94416 11.3892 2.33332 8.16666 2.33332C4.94416 2.33332 2.33332 4.94416 2.33332 8.16666C2.33332 11.3892 4.94416 14 8.16666 14ZM15.2375 14.0592L17.595 16.4158L16.4158 17.595L14.0592 15.2375L15.2375 14.0592Z" fill="#323232"/>
</svg>
