<svg width="22" height="20" viewBox="0 0 22 20" fill="none" xmlns="http://www.w3.org/2000/svg">
<path fill-rule="evenodd" clip-rule="evenodd" d="M7.30818 4.34778C7.53297 4.26833 7.78012 4.28141 7.99527 4.38415C8.21042 4.48689 8.37595 4.67088 8.45547 4.89565C8.64137 5.42199 8.98591 5.87772 9.44163 6.20007C9.89735 6.52242 10.4418 6.69552 11 6.69552C11.5582 6.69552 12.1027 6.52242 12.5584 6.20007C13.0141 5.87772 13.3587 5.42199 13.5446 4.89565C13.5825 4.78253 13.6425 4.67808 13.7212 4.5884C13.8 4.49872 13.8957 4.4256 14.003 4.37331C14.1102 4.32101 14.2268 4.29058 14.3459 4.2838C14.465 4.27701 14.5843 4.294 14.6968 4.33378C14.8093 4.37356 14.9127 4.43532 15.0011 4.51548C15.0895 4.59564 15.161 4.69259 15.2116 4.80068C15.2621 4.90876 15.2906 5.02583 15.2954 5.14505C15.3003 5.26426 15.2813 5.38325 15.2397 5.49507C14.9298 6.37183 14.3556 7.13094 13.5963 7.66784C12.837 8.20475 11.93 8.49306 11 8.49306C10.0701 8.49306 9.163 8.20475 8.40372 7.66784C7.64443 7.13094 7.07027 6.37183 6.76031 5.49507C6.68085 5.27028 6.69393 5.02313 6.79668 4.80798C6.89942 4.59283 7.0834 4.4273 7.30818 4.34778ZM11.4322 2.19826H10.5666C8.61851 2.19826 7.32137 2.20185 6.33832 2.32294C5.40562 2.43803 4.97523 2.63823 4.67312 2.88879C4.37101 3.14055 4.09528 3.52538 3.80996 4.42091C3.51024 5.3644 3.26808 6.63877 2.90843 8.55452C2.40491 11.2399 2.06684 13.0634 2.0069 14.4372C1.94935 15.762 2.17114 16.3254 2.48284 16.7007C2.79454 17.0759 3.30644 17.3972 4.61917 17.5842C5.97986 17.7784 7.83567 17.7832 10.5678 17.7832H11.431C14.1644 17.7832 16.019 17.7784 17.3797 17.5842C18.6924 17.3972 19.2043 17.0759 19.516 16.7007C19.8277 16.3242 20.0495 15.762 19.9919 14.4372C19.932 13.0634 19.5939 11.2399 19.0904 8.55452C18.7307 6.63877 18.4898 5.3656 18.1889 4.42091C17.9035 3.52538 17.6278 3.13935 17.3257 2.88879C17.0236 2.63823 16.5944 2.43803 15.6605 2.32294C14.6775 2.20185 13.3803 2.19826 11.4322 2.19826ZM3.52463 1.50533C2.19392 2.61066 1.84266 4.48205 1.14133 8.22364C0.154686 13.4854 -0.339237 16.1156 1.09937 17.8491C2.53798 19.5815 5.2138 19.5815 10.5666 19.5815H11.4322C16.785 19.5815 19.462 19.5815 20.9007 17.8491C22.3393 16.1156 21.8453 13.4854 20.8587 8.22244C20.1574 4.48205 19.8061 2.61066 18.4742 1.50533C17.1435 0.399994 15.2385 0.399994 11.4322 0.399994H10.5666C6.76031 0.399994 4.85654 0.399994 3.52463 1.50533Z" fill="#323232"/>
</svg>
