<svg width="181" height="12" viewBox="0 0 181 12" fill="none" xmlns="http://www.w3.org/2000/svg">
<path d="M9.11719 11.0078H5.02344V3.83594H0.15625V0.507812H13.9844V3.83594H9.11719V11.0078ZM15.3594 11.0078V0.507812H27.6484V3.19531H19.4531V4.53906H27.6484V6.96875H19.4531V8.3125H27.6484V11.0078H15.3594ZM29.8281 11.0078V0.507812H42.1172V3.19531H33.9219V4.53906H42.1172V6.96875H33.9219V8.3125H42.1172V11.0078H29.8281ZM60.375 6.64062H64.5703C64.3125 10.1875 61.2031 11.25 57.4219 11.25C53.4844 11.2422 50.2344 10.1016 50.25 6.125V5.35938C50.2344 1.39062 53.4844 0.25 57.4219 0.234375C61.2031 0.242188 64.3125 1.30469 64.5703 4.84375H60.375C59.9922 3.8125 58.8281 3.57031 57.4219 3.57031C55.75 3.59375 54.3281 3.89062 54.3516 5.61719V5.875C54.3281 7.58594 55.75 7.89844 57.4219 7.92188C58.8281 7.92188 60 7.67188 60.375 6.64062ZM72.7656 0.234375C76.7188 0.234375 79.9297 1.39062 79.9297 5.35938V6.125C79.9453 10.0938 76.7109 11.2422 72.7656 11.25C68.8125 11.2422 65.5781 10.0938 65.5938 6.125V5.35938C65.5781 1.38281 68.8125 0.242188 72.7656 0.234375ZM75.8359 5.86719V5.60938C75.8594 3.89844 74.4375 3.58594 72.7656 3.5625C71.0859 3.58594 69.6641 3.89844 69.6875 5.60938V5.86719C69.6641 7.58594 71.0859 7.89844 72.7656 7.92188C74.4375 7.89844 75.8594 7.58594 75.8359 5.86719ZM81.1562 10.9922V0.492188H86.2812L90.375 5.74219L94.4766 0.492188H99.5938V10.9922H95.5V5.39062L91.3984 10.9922H89.3516L85.25 5.39062V10.9922H81.1562ZM101.984 10.9922V0.492188H107.109L111.203 5.74219L115.305 0.492188H120.422V10.9922H116.328V5.39062L112.227 10.9922H110.18L106.078 5.39062V10.9922H101.984ZM122.812 11.0078V0.507812H135.102V3.19531H126.906V4.53906H135.102V6.96875H126.906V8.3125H135.102V11.0078H122.812ZM137.281 0.5H147.398C149.562 0.476562 151.398 2.29688 151.367 4.46875C151.367 5.25781 151.156 5.97656 150.734 6.61719C150.32 7.25 149.766 7.73438 149.078 8.05469L151.367 11H147.008L145.031 8.4375H141.375V11H137.281V0.5ZM146.367 3.57031H141.375V5.35938H146.367C146.617 5.35938 146.828 5.27344 147 5.10156C147.18 4.92188 147.266 4.71094 147.266 4.46875C147.266 3.96875 146.867 3.57031 146.367 3.57031ZM162.469 6.64062H166.664C166.406 10.1875 163.297 11.25 159.516 11.25C155.578 11.2422 152.328 10.1016 152.344 6.125V5.35938C152.328 1.39062 155.578 0.25 159.516 0.234375C163.297 0.242188 166.406 1.30469 166.664 4.84375H162.469C162.086 3.8125 160.922 3.57031 159.516 3.57031C157.844 3.59375 156.422 3.89062 156.445 5.61719V5.875C156.422 7.58594 157.844 7.89844 159.516 7.92188C160.922 7.92188 162.094 7.67188 162.469 6.64062ZM167.891 11.0078V0.507812H180.18V3.19531H171.984V4.53906H180.18V6.96875H171.984V8.3125H180.18V11.0078H167.891Z" fill="#323232"/>
</svg>
